<?xml version="1.0" encoding="iso-8859-1"?>
<!-- Generator: Adobe Illustrator 17.1.0, SVG Export Plug-In . SVG Version: 6.00 Build 0)  -->
<!DOCTYPE svg PUBLIC "-//W3C//DTD SVG 1.1//EN" "http://www.w3.org/Graphics/SVG/1.1/DTD/svg11.dtd">
<svg version="1.1" id="Capa_1" xmlns="http://www.w3.org/2000/svg" xmlns:xlink="http://www.w3.org/1999/xlink" x="0px" y="0px"
	 viewBox="0 0 447.88 447.88" style="enable-background:new 0 0 447.88 447.88;" xml:space="preserve">
<path d="M439.432,212.995l-68.793-32.627c-2.876-1.364-5.292-2.027-7.388-2.027c-2.901,0-5.274,1.317-6.511,3.614
	c-2.463,4.576,1.113,9.996,2.288,11.777l0.215,0.326c-7.936,1.469-14.797,6.028-19.288,12.382H143.202
	c-3.704-6.841-9.576-11.188-16.308-11.188c-5.25,0-9.975,2.647-13.56,7.054l-17.396-20.297c-5.392-6.291-14.861-7.02-21.15-1.629
	c-3.469,2.973-5.237,7.187-5.229,11.423l-8.395-9.794c-5.391-6.291-14.862-7.02-21.15-1.629c-3.469,2.973-5.237,7.187-5.229,11.424
	l-8.395-9.795c-5.392-6.291-14.861-7.02-21.15-1.629c-6.291,5.391-7.02,14.86-1.629,21.15l19.204,22.408L3.611,246.348
	c-5.391,6.29-4.662,15.76,1.629,21.15c2.828,2.424,6.299,3.61,9.754,3.61c4.228,0,8.43-1.777,11.396-5.239l8.395-9.795
	c-0.008,4.237,1.76,8.45,5.229,11.424c2.828,2.424,6.299,3.61,9.754,3.61c4.228,0,8.43-1.777,11.396-5.239l8.395-9.794
	c-0.008,4.237,1.76,8.45,5.229,11.423c2.828,2.424,6.299,3.61,9.754,3.61c4.228,0,8.43-1.777,11.396-5.239l17.396-20.297
	c3.584,4.408,8.31,7.054,13.56,7.054c6.732,0,12.604-4.346,16.308-11.188h196.754c4.491,6.354,11.352,10.913,19.288,12.382
	l-0.215,0.326c-1.175,1.781-4.751,7.202-2.288,11.777c1.236,2.297,3.609,3.614,6.511,3.614c2.096,0,4.512-0.663,7.388-2.027
	l68.793-32.627c7.351-3.486,8.448-8.354,8.448-10.945S446.783,216.481,439.432,212.995z"/>
<g>
</g>
<g>
</g>
<g>
</g>
<g>
</g>
<g>
</g>
<g>
</g>
<g>
</g>
<g>
</g>
<g>
</g>
<g>
</g>
<g>
</g>
<g>
</g>
<g>
</g>
<g>
</g>
<g>
</g>
</svg>
